<svg width="2502" height="709" viewBox="0 0 2502 709" fill="none" xmlns="http://www.w3.org/2000/svg">
<path fill-rule="evenodd" clip-rule="evenodd" d="M0.203125 0.751221H1408.24V139.793C1330.95 180.379 1278.24 261.42 1278.24 354.773C1278.24 448.126 1330.95 529.167 1408.24 569.753V708.794H0.203125V569.753C77.4891 529.167 130.203 448.126 130.203 354.773C130.203 261.42 77.4891 180.378 0.203125 139.792V0.751221Z" fill="#ED7118"/>
<path d="M463.054 318.772C463.054 341.772 459.054 361.439 451.054 377.772C443.054 393.772 432.054 406.772 418.054 416.772C404.387 426.772 388.22 434.106 369.554 438.772C351.22 443.439 331.387 445.772 310.054 445.772V525.272H203.554V191.772H310.054C331.387 191.772 351.22 194.106 369.554 198.772C388.22 203.439 404.387 210.772 418.054 220.772C432.054 230.772 443.054 243.939 451.054 260.272C459.054 276.272 463.054 295.772 463.054 318.772ZM310.054 355.772H314.554C328.554 355.772 338.554 352.606 344.554 346.272C350.887 339.606 354.054 330.439 354.054 318.772C354.054 307.106 350.887 298.106 344.554 291.772C338.554 285.106 328.554 281.772 314.554 281.772H310.054V355.772ZM488.222 191.772H599.222V437.772H691.222V525.272H488.222V191.772ZM825.503 191.772H905.503L1032 525.272H927.003L916.003 495.272H815.003L804.003 525.272H699.003L825.503 191.772ZM888.003 421.772L865.503 363.272L843.003 421.772H888.003ZM1052.99 381.772L949.491 191.772H1067.99L1106.49 262.272L1144.49 191.772H1262.99L1159.49 381.772V525.272H1052.99V381.772Z" fill="white"/>
<path d="M1730.14 318.772C1730.14 341.772 1726.14 361.439 1718.14 377.772C1710.14 393.772 1699.14 406.772 1685.14 416.772C1671.48 426.772 1655.31 434.106 1636.64 438.772C1618.31 443.439 1598.48 445.772 1577.14 445.772V525.272H1470.64V191.772H1577.14C1598.48 191.772 1618.31 194.106 1636.64 198.772C1655.31 203.439 1671.48 210.772 1685.14 220.772C1699.14 230.772 1710.14 243.939 1718.14 260.272C1726.14 276.272 1730.14 295.772 1730.14 318.772ZM1577.14 355.772H1581.64C1595.64 355.772 1605.64 352.606 1611.64 346.272C1617.98 339.606 1621.14 330.439 1621.14 318.772C1621.14 307.106 1617.98 298.106 1611.64 291.772C1605.64 285.106 1595.64 281.772 1581.64 281.772H1577.14V355.772ZM1854.31 191.772H1934.31L2060.81 525.272H1955.81L1944.81 495.272H1843.81L1832.81 525.272H1727.81L1854.31 191.772ZM1916.81 421.772L1894.31 363.272L1871.81 421.772H1916.81ZM2059.3 421.772C2066.63 424.106 2074.3 425.939 2082.3 427.272C2088.97 428.939 2096.47 430.272 2104.8 431.272C2113.47 432.272 2122.13 432.772 2130.8 432.772C2146.13 432.772 2153.8 427.106 2153.8 415.772C2153.8 411.439 2151.47 407.106 2146.8 402.772C2142.13 398.106 2136.13 393.106 2128.8 387.772C2121.8 382.106 2114.13 375.939 2105.8 369.272C2097.8 362.606 2090.13 354.939 2082.8 346.272C2075.8 337.606 2069.97 327.939 2065.3 317.272C2060.63 306.272 2058.3 293.772 2058.3 279.772C2058.3 264.106 2061.13 250.272 2066.8 238.272C2072.47 226.272 2080.3 216.272 2090.3 208.272C2100.3 200.272 2111.97 194.272 2125.3 190.272C2138.97 185.939 2153.47 183.772 2168.8 183.772C2176.8 183.772 2184.8 184.272 2192.8 185.272C2200.8 185.939 2207.97 186.606 2214.3 187.272C2221.63 188.272 2228.8 189.272 2235.8 190.272V283.772C2233.13 283.439 2230.13 283.106 2226.8 282.772C2224.13 282.439 2221.13 282.106 2217.8 281.772C2214.47 281.439 2210.97 281.272 2207.3 281.272C2205.3 281.272 2202.8 281.439 2199.8 281.772C2196.8 281.772 2193.97 282.106 2191.3 282.772C2188.63 283.439 2186.3 284.606 2184.3 286.272C2182.3 287.939 2181.3 290.272 2181.3 293.272C2181.3 295.939 2183.47 299.272 2187.8 303.272C2192.47 307.272 2197.97 311.939 2204.3 317.272C2210.97 322.606 2218.13 328.772 2225.8 335.772C2233.8 342.772 2240.97 350.772 2247.3 359.772C2253.97 368.772 2259.47 378.939 2263.8 390.272C2268.47 401.606 2270.8 414.272 2270.8 428.272C2270.8 442.939 2268.47 456.772 2263.8 469.772C2259.13 482.439 2251.8 493.606 2241.8 503.272C2232.13 512.606 2219.63 519.939 2204.3 525.272C2188.97 530.939 2170.8 533.772 2149.8 533.772C2137.13 533.772 2125.3 533.106 2114.3 531.772C2103.63 530.772 2094.13 529.439 2085.8 527.772C2076.13 526.106 2067.3 524.106 2059.3 521.772V421.772ZM2284.4 421.772C2291.73 424.106 2299.4 425.939 2307.4 427.272C2314.06 428.939 2321.56 430.272 2329.9 431.272C2338.56 432.272 2347.23 432.772 2355.9 432.772C2371.23 432.772 2378.9 427.106 2378.9 415.772C2378.9 411.439 2376.56 407.106 2371.9 402.772C2367.23 398.106 2361.23 393.106 2353.9 387.772C2346.9 382.106 2339.23 375.939 2330.9 369.272C2322.9 362.606 2315.23 354.939 2307.9 346.272C2300.9 337.606 2295.06 327.939 2290.4 317.272C2285.73 306.272 2283.4 293.772 2283.4 279.772C2283.4 264.106 2286.23 250.272 2291.9 238.272C2297.56 226.272 2305.4 216.272 2315.4 208.272C2325.4 200.272 2337.06 194.272 2350.4 190.272C2364.06 185.939 2378.56 183.772 2393.9 183.772C2401.9 183.772 2409.9 184.272 2417.9 185.272C2425.9 185.939 2433.06 186.606 2439.4 187.272C2446.73 188.272 2453.9 189.272 2460.9 190.272V283.772C2458.23 283.439 2455.23 283.106 2451.9 282.772C2449.23 282.439 2446.23 282.106 2442.9 281.772C2439.56 281.439 2436.06 281.272 2432.4 281.272C2430.4 281.272 2427.9 281.439 2424.9 281.772C2421.9 281.772 2419.06 282.106 2416.4 282.772C2413.73 283.439 2411.4 284.606 2409.4 286.272C2407.4 287.939 2406.4 290.272 2406.4 293.272C2406.4 295.939 2408.56 299.272 2412.9 303.272C2417.56 307.272 2423.06 311.939 2429.4 317.272C2436.06 322.606 2443.23 328.772 2450.9 335.772C2458.9 342.772 2466.06 350.772 2472.4 359.772C2479.06 368.772 2484.56 378.939 2488.9 390.272C2493.56 401.606 2495.9 414.272 2495.9 428.272C2495.9 442.939 2493.56 456.772 2488.9 469.772C2484.23 482.439 2476.9 493.606 2466.9 503.272C2457.23 512.606 2444.73 519.939 2429.4 525.272C2414.06 530.939 2395.9 533.772 2374.9 533.772C2362.23 533.772 2350.4 533.106 2339.4 531.772C2328.73 530.772 2319.23 529.439 2310.9 527.772C2301.23 526.106 2292.4 524.106 2284.4 521.772V421.772Z" fill="#33383C"/>
</svg>
